<svg version="1.2" xmlns="http://www.w3.org/2000/svg" viewBox="0 0 1080 1080" width="1080" height="1080">
	<style>
		.s0 { fill: #ffffff } 
		.s1 { fill: #000000 } 
	</style>
	<g id="Background">
		<path id="Path 0" class="s0" d="m0 540v540h1080v-1080h-1080z"/>
		<path id="Path 1" class="s1" d="m500.5 89.12c-5.5 0.47-16.52 1.8-24.5 2.95-7.98 1.15-19.9 3.19-26.5 4.53-6.6 1.34-17.85 3.97-25 5.85-7.15 1.88-19.07 5.42-26.5 7.86-7.43 2.45-18.9 6.58-25.5 9.18-6.6 2.61-20.55 8.93-31 14.05-10.45 5.12-24.18 12.39-30.5 16.17-6.32 3.78-16 9.83-21.5 13.46-5.5 3.63-14.95 10.32-21 14.87-6.05 4.55-14.82 11.52-19.5 15.5-4.68 3.98-13.22 11.58-19 16.89-5.78 5.32-14.71 14.26-19.86 19.87-5.14 5.61-13.51 15.15-18.58 21.2-5.07 6.05-12.36 15.27-16.19 20.5-3.83 5.23-10.07 14.23-13.88 20-3.81 5.77-9.79 15.45-13.3 21.5-3.5 6.05-10.33 19.1-15.16 29-4.84 9.9-11.59 25.2-15.01 34-3.41 8.8-8.37 23.2-11 32-2.63 8.8-5.95 20.95-7.37 27-1.42 6.05-3.69 17.07-5.05 24.5-1.36 7.43-3.18 19.57-4.04 27-0.86 7.43-1.99 22.5-2.52 33.5-0.6 12.6-0.6 27.03-0.01 39 0.52 10.45 1.42 23.5 2 29 0.58 5.5 2.13 16.52 3.43 24.5 1.31 7.98 3.58 19.9 5.06 26.5 1.47 6.6 4.69 18.98 7.15 27.5 2.47 8.52 6.99 22.25 10.05 30.5 3.05 8.25 8.23 20.85 11.49 28 3.26 7.15 8.77 18.4 12.25 25 3.47 6.6 9.56 17.4 13.54 24 3.97 6.6 10.2 16.27 13.83 21.5 3.63 5.23 9.5 13.33 13.05 18 3.54 4.67 10.3 13 15.03 18.5 4.72 5.49 12.33 14.04 16.9 19 4.58 4.95 12.9 13.21 18.5 18.36 5.61 5.14 15.14 13.51 21.19 18.58 6.05 5.07 14.82 12.05 19.5 15.51 4.68 3.46 13.68 9.69 20 13.85 6.32 4.16 16.45 10.45 22.5 13.97 6.05 3.53 19.1 10.37 29 15.2 9.9 4.84 24.98 11.5 33.5 14.82 8.52 3.31 21.57 7.89 29 10.17 7.43 2.28 18.68 5.44 25 7.02 6.32 1.59 17.35 4.01 24.5 5.39 7.15 1.38 17.95 3.19 24 4.02 6.05 0.83 15.57 1.87 21.15 2.31l10.14 0.8c1.02-13.17 1.17-127.25 1.01-262l-0.3-245-267.5-0.5c-1.64 4.26-2.97 8.87-4.01 13-1.05 4.12-2.66 11.77-3.57 17-1 5.66-1.67 14.75-1.66 22.5 0.01 7.46 0.72 17.05 1.66 22.5 0.9 5.23 2.75 14.34 4.11 20.25l2.47 10.75h174v273c-5.81-0.9-11.1-2.73-15.5-4.65-4.4-1.92-13.85-6.52-21-10.23-7.15-3.7-18.63-10.31-25.5-14.67-6.88-4.37-17.23-11.49-23-15.83-5.77-4.34-13.42-10.41-16.99-13.5-3.57-3.09-10.28-9.22-14.91-13.62-4.63-4.4-13.35-13.63-19.38-20.5-6.03-6.88-14.01-16.55-17.73-21.5-3.73-4.95-10.53-14.85-15.11-22-4.58-7.15-12.19-20.65-16.91-30-4.71-9.35-10.68-22.4-13.25-29-2.57-6.6-6.05-16.27-7.74-21.5-1.68-5.23-4.6-15.8-6.48-23.5-1.87-7.7-4.1-18.05-4.94-23-0.84-4.95-2.21-15.08-3.04-22.5-0.91-8.2-1.5-22.72-1.5-37 0-14.22 0.59-28.83 1.5-37 0.82-7.43 2.39-18.45 3.49-24.5 1.09-6.05 3.36-16.63 5.04-23.5 1.68-6.88 5.12-18.57 7.63-26 2.51-7.43 6.78-18.68 9.49-25 2.71-6.32 8.11-17.57 12-25 3.88-7.43 10.5-18.9 14.69-25.5 4.2-6.6 11.18-16.73 15.52-22.5 4.34-5.77 10.41-13.42 13.5-16.99 3.09-3.57 9.22-10.28 13.62-14.91 4.4-4.63 13.43-13.19 20.07-19.01 6.64-5.82 16.54-13.96 22-18.08 5.46-4.11 15.55-11.08 22.43-15.47 6.88-4.39 20.15-11.85 29.5-16.57 9.35-4.71 20.82-10.07 25.5-11.9 4.68-1.84 11.88-4.56 16-6.07 4.13-1.5 12.45-4.13 18.5-5.84 6.05-1.72 15.95-4.23 22-5.59 6.05-1.36 17.3-3.38 25-4.49 7.7-1.11 15.69-2.14 17.75-2.3l3.76-0.28c-0.01-81.76-0.35-105.44-0.76-105.36-0.41 0.07-5.25 0.52-10.75 0.98zm64.49 451.13l-0.01 452.25c13.58-1.23 25.4-2.71 35.02-4.08 9.63-1.37 24.02-3.8 32-5.41 7.98-1.61 19.67-4.4 26-6.22l11.5-3.29 0.5-382c25.96-1.17 74.11-1.5 123.75-1.5 85.29 0 90.25 0.1 90.25 1.75 0 0.96-0.71 5.8-1.57 10.75-0.85 4.95-2.84 14.4-4.41 21-1.56 6.6-4.51 17.17-6.54 23.5-2.03 6.33-5.84 16.9-8.46 23.5-2.62 6.6-7.81 18.08-11.52 25.5-3.72 7.42-9.48 18-12.81 23.5-3.32 5.5-8.53 13.6-11.57 18-3.04 4.4-7.78 10.92-10.53 14.5-2.75 3.58-8.68 10.77-13.19 16-4.51 5.23-13.08 14.25-19.05 20.05-5.97 5.8-14.9 13.9-19.85 18-4.95 4.11-13.73 10.89-19.5 15.08-5.77 4.2-14.74 10.27-19.92 13.5l-9.43 5.87c0.97 92.34 0.82 110.48 0.11 111.5-0.64 0.92-0.69 2.17-0.15 3.23 0.8 1.55 2.29 1.07 14.39-4.56 7.42-3.45 18-8.7 23.5-11.67 5.5-2.96 15.17-8.5 21.5-12.3 6.33-3.81 15.77-9.9 21-13.53 5.23-3.63 13.33-9.51 18-13.06 4.67-3.55 12.33-9.7 17-13.67 4.67-3.96 13.09-11.42 18.7-16.58 5.61-5.15 14.55-14.09 19.86-19.86 5.31-5.77 13.81-15.45 18.88-21.5 5.07-6.05 12.05-14.83 15.51-19.5 3.46-4.67 9.69-13.67 13.85-20 4.16-6.33 10.45-16.45 13.97-22.5 3.53-6.05 10.37-19.1 15.2-29 4.84-9.9 11.59-25.2 15.01-34 3.41-8.8 8.37-23.2 11-32 2.63-8.8 5.95-20.95 7.37-27 1.42-6.05 3.69-17.08 5.05-24.5 1.36-7.42 3.18-19.58 4.04-27 0.86-7.42 1.99-22.5 2.52-33.5 0.6-12.6 0.6-27.03 0.01-39-0.52-10.45-1.42-23.5-2-29-0.58-5.5-2.13-16.52-3.43-24.5-1.31-7.98-3.58-19.9-5.06-26.5-1.47-6.6-4.69-18.98-7.15-27.5-2.47-8.52-6.99-22.25-10.05-30.5-3.05-8.25-8.23-20.85-11.49-28-3.26-7.15-8.77-18.4-12.25-25-3.47-6.6-9.56-17.4-13.54-24-3.97-6.6-10.2-16.27-13.83-21.5-3.63-5.23-9.51-13.32-13.06-18-3.55-4.68-9.7-12.32-13.67-17-3.96-4.68-11.56-13.22-16.87-19-5.32-5.78-14.26-14.71-19.87-19.86-5.61-5.14-15.15-13.51-21.2-18.58-6.05-5.07-14.83-12.05-19.5-15.51-4.67-3.46-13.67-9.69-20-13.85-6.33-4.16-16.45-10.45-22.5-13.97-6.05-3.53-19.1-10.37-29-15.2-9.9-4.84-24.98-11.5-33.5-14.82-8.52-3.31-21.58-7.89-29-10.17-7.42-2.28-18.67-5.44-25-7.02-6.33-1.59-17.35-4.01-24.5-5.38-7.15-1.37-17.95-3.19-24-4.05-6.05-0.85-16.26-2.01-22.69-2.57-6.42-0.56-12.16-1.02-12.75-1.02-0.75 0-1.06 133.48-1.07 452.25z"/>
		<path id="Path 2" class="s0" d="m487 95.6c-6.32 0.76-16.9 2.3-23.5 3.42-6.6 1.12-21 4.25-32 6.96-11 2.71-27.2 7.39-36 10.41-8.8 3.01-22.98 8.46-31.5 12.11-8.52 3.64-21.8 9.89-29.5 13.9-7.7 4-20.07 11-27.5 15.54-7.43 4.55-18 11.45-23.5 15.33-5.5 3.89-12.93 9.33-16.5 12.1-3.57 2.77-12.35 10.07-19.5 16.23-7.15 6.16-19.77 18.1-28.05 26.55-8.28 8.44-18.21 19.17-22.08 23.85-3.86 4.68-9.94 12.32-13.5 17-3.57 4.68-9.94 13.56-14.18 19.75-4.23 6.19-11.59 17.89-16.36 26-4.76 8.11-11.92 21.5-15.9 29.75-3.98 8.25-10.16 22.43-13.74 31.5-3.58 9.07-8.34 22.35-10.57 29.5-2.23 7.15-5.68 19.52-7.67 27.5-1.99 7.98-4.9 22.15-6.46 31.5-1.56 9.35-3.44 22.4-4.16 29-0.85 7.7-1.33 24.72-1.33 47.5 0 28.31 0.37 38.44 1.82 50 0.99 7.98 2.69 19.67 3.77 26 1.08 6.33 4.25 20.73 7.06 32 2.8 11.27 7.25 26.8 9.89 34.5 2.63 7.7 7.7 20.98 11.25 29.5 3.55 8.52 8.94 20.45 11.96 26.5 3.03 6.05 8.1 15.5 11.27 21 3.17 5.5 8.34 14.05 11.48 19 3.14 4.95 9.22 13.95 13.52 20 4.29 6.05 11.22 15.25 15.39 20.45 4.17 5.2 11.69 13.98 16.71 19.5 5.01 5.53 15.14 15.92 22.5 23.09 7.36 7.18 17.2 16.21 21.88 20.08 4.68 3.87 12.32 9.95 17 13.51 4.68 3.57 13.56 9.94 19.75 14.18 6.19 4.23 17.89 11.59 26 16.36 8.11 4.76 21.5 11.92 29.75 15.9 8.25 3.98 22.43 10.16 31.5 13.74 9.07 3.58 22.35 8.34 29.5 10.57 7.15 2.23 19.52 5.68 27.5 7.67 7.98 1.99 22.15 4.9 31.5 6.46 9.35 1.56 22.26 3.43 28.69 4.16 6.43 0.73 11.83 1.1 12 0.83 0.17-0.27 0.2-111.99 0.06-248.25l-0.25-247.75h-259c-1.46 5.81-2.57 10.2-3.4 13.5-0.84 3.3-2.01 9.38-2.6 13.5-0.59 4.13-1.07 12.9-1.08 19.5 0 6.6 0.5 15.38 1.11 19.5 0.61 4.13 2.2 12.34 3.54 18.25l2.43 10.75h175v284c-3.49-0.03-7.2-0.73-10.5-1.59-3.3-0.85-12.98-4.92-21.5-9.04-8.52-4.11-19.1-9.55-23.5-12.07-4.4-2.52-13.63-8.28-20.5-12.79-6.88-4.52-16.1-11.06-20.5-14.54-4.4-3.48-12.5-10.23-18-15-5.5-4.77-14.73-13.6-20.5-19.62-5.77-6.01-14.82-16.32-20.11-22.89-5.28-6.58-12.98-16.91-17.1-22.96-4.13-6.05-10.01-15.27-13.07-20.5-3.06-5.23-8.26-14.9-11.55-21.5-3.29-6.6-8.01-16.95-10.47-23-2.47-6.05-6.52-17.3-9.02-25-2.49-7.7-5.43-17.6-6.53-22-1.1-4.4-2.92-12.73-4.04-18.5-1.13-5.77-2.74-15.67-3.58-22-0.84-6.33-1.96-19.37-2.5-29-0.65-11.53-0.64-23.3 0.01-34.5 0.55-9.35 1.7-22.4 2.55-29 0.86-6.6 2.66-17.4 4-24 1.35-6.6 3.37-15.37 4.49-19.5 1.12-4.12 3.64-12.45 5.59-18.5 1.94-6.05 5.57-16.18 8.06-22.5 2.49-6.32 7.68-17.8 11.53-25.5 3.85-7.7 9.71-18.5 13.02-24 3.3-5.5 8.92-14.27 12.49-19.5 3.56-5.23 8.98-12.65 12.05-16.5 3.07-3.85 9.47-11.5 14.23-17 4.76-5.5 13.78-14.91 20.05-20.9 6.27-6 16.8-15.24 23.4-20.54 6.6-5.3 17.85-13.52 25-18.26 7.15-4.75 18.18-11.51 24.5-15.03 6.32-3.51 16.9-8.9 23.5-11.96 6.6-3.07 17.63-7.62 24.5-10.11 6.87-2.49 17.68-6.11 24-8.03 6.32-1.92 17.13-4.67 24-6.12 6.87-1.45 17.23-3.3 23-4.11 5.77-0.81 12.41-1.68 14.75-1.95l4.25-0.49v-95c-6.59 0.17-13.68 0.84-20 1.6zm83.16 444.75l-0.16 446.65c7.36-0.8 15.13-1.71 22-2.55 6.88-0.83 17.9-2.44 24.5-3.58 6.6-1.13 16.73-3.15 22.5-4.49 5.77-1.34 13.99-3.32 18.25-4.41l7.75-1.97v-385c209 0 222 0.18 222 1.5 0 0.83 0.67 1.5 1.5 1.5 0.93 0 1.33 0.66 1.05 1.75-0.24 0.96-1.19 6.48-2.09 12.25-0.91 5.78-3.45 17.7-5.66 26.5-2.21 8.8-6.05 21.85-8.53 29-2.48 7.15-6.98 18.63-9.99 25.5-3.02 6.88-7.77 16.78-10.56 22-2.79 5.23-7.56 13.55-10.6 18.5-3.03 4.95-7.99 12.6-11 17-3.02 4.4-9.79 13.39-15.05 19.98-5.26 6.58-13.62 16.22-18.57 21.41-4.95 5.19-13.95 13.9-20 19.36-6.05 5.46-15.27 13.18-20.5 17.16-5.23 3.98-12.42 9.26-16 11.74-3.58 2.47-9.65 6.39-13.5 8.71l-7 4.21c0.58 46.83 1.03 70.67 1.37 83.18l0.63 22.75c20.15-9.82 29.83-14.83 34.5-17.48 4.67-2.64 13.23-7.75 19-11.34 5.77-3.6 15.9-10.36 22.5-15.02 6.6-4.67 15.15-11 19-14.06 3.85-3.06 12.17-10.12 18.5-15.68 6.33-5.56 17.8-16.61 25.5-24.55 7.7-7.94 17.18-18.25 21.08-22.91 3.89-4.65 9.99-12.29 13.55-16.96 3.56-4.67 9.94-13.56 14.18-19.75 4.23-6.19 11.59-17.89 16.36-26 4.76-8.11 11.92-21.5 15.9-29.75 3.98-8.25 10.16-22.42 13.74-31.5 3.58-9.08 8.33-22.35 10.56-29.5 2.22-7.15 5.67-19.52 7.66-27.5 2-7.97 4.91-22.15 6.47-31.5 1.57-9.35 3.45-22.4 4.17-29 0.85-7.7 1.33-24.72 1.33-47.5 0-28.31-0.37-38.44-1.82-50-0.99-7.97-2.7-19.67-3.78-26-1.08-6.32-4.18-20.5-6.89-31.5-2.71-11-7.15-26.52-9.88-34.5-2.73-7.97-7.87-21.47-11.42-30-3.55-8.52-8.94-20.45-11.96-26.5-3.03-6.05-8.1-15.5-11.27-21-3.17-5.5-8.34-14.05-11.48-19-3.14-4.95-9.23-13.95-13.52-20-4.3-6.05-10.32-14.15-13.38-18-3.06-3.85-10.13-12.17-15.7-18.5-5.58-6.32-16.61-17.82-24.52-25.55-7.91-7.72-18.21-17.21-22.88-21.07-4.67-3.87-12.33-9.95-17-13.51-4.67-3.57-13.56-9.94-19.75-14.18-6.19-4.23-17.77-11.51-25.75-16.19-7.98-4.67-19-10.75-24.5-13.5-5.5-2.75-16.19-7.65-23.75-10.89-7.56-3.23-19.49-7.96-26.5-10.5-7.01-2.53-20.06-6.63-29-9.1-8.94-2.47-22.55-5.82-30.25-7.45-7.7-1.62-20.3-3.86-28-4.98-7.7-1.11-18.32-2.33-23.59-2.7l-9.59-0.68z"/>
		<path id="Path 3" class="s1" d="m664.93 350.3l0.07 140.2c173.21-0.53 223.61-0.76 223.74-0.84 0.12-0.09-0.45-4.21-1.29-9.16-0.84-4.95-2.68-14.18-4.09-20.5-1.41-6.32-4.97-18.93-7.91-28-2.95-9.07-7.22-21-9.51-26.5-2.28-5.5-6.83-15.4-10.12-22-3.29-6.6-8.49-16.27-11.56-21.5-3.07-5.23-7.83-12.88-10.59-17-2.75-4.13-7.5-10.88-10.55-15-3.05-4.13-8.93-11.55-13.07-16.5-4.14-4.95-11.81-13.44-17.04-18.88-5.23-5.43-14.01-13.78-19.51-18.55-5.5-4.77-13.15-11.18-17-14.25-3.85-3.07-11.27-8.49-16.5-12.05-5.22-3.57-14-9.19-19.5-12.49-5.5-3.31-15.96-9-23.25-12.65-7.29-3.65-17.56-8.41-22.82-10.58l-9.58-3.95z"/>
		<path id="Path 4" class="s0" d="m670.09 351.43l-0.09 133.57c191.04 0 213-0.26 212.99-1.25 0-0.69-1.13-6.65-2.5-13.25-1.37-6.6-4.05-17.63-5.96-24.5-1.9-6.88-4.77-16.1-6.36-20.5-1.6-4.4-4.4-11.82-6.24-16.5-1.83-4.68-7.19-16.15-11.9-25.5-4.72-9.35-12.33-22.85-16.91-30-4.58-7.15-11.38-17.05-15.1-22-3.73-4.95-11.72-14.63-17.76-21.5-6.04-6.88-14.76-16.1-19.37-20.51-4.62-4.4-11.54-10.71-15.39-14-3.85-3.3-11.5-9.37-17-13.49-5.5-4.12-15.85-11.22-23-15.78-7.15-4.56-21.55-12.52-32-17.68-10.45-5.16-19.97-9.68-21.16-10.03l-2.15-0.64z"/>
	</g>
</svg>