<svg version="1.2" xmlns="http://www.w3.org/2000/svg" viewBox="0 0 1354 1416" width="1354" height="1416">
	<style>
		.s0 { fill: #ffffff } 
		.s1 { fill: #000000 } 
	</style>
	<g id="Background">
		<path id="Path 0" class="s0" d="m0 708v708h1354v-1416h-1354z"/>
		<path id="Path 1" class="s1" d="m687 708v540c6.59 0.01 15.7-0.46 24.5-1.03 8.8-0.56 17.01-1.24 18.25-1.5l2.25-0.47v-509l439.5-0.02c-1.24 14.35-2.26 24.14-3.07 31.02-0.81 6.88-2.6 19.02-3.97 27-1.38 7.98-4.5 22.6-6.93 32.5-2.44 9.9-6.53 24.52-9.08 32.5-2.55 7.98-7.55 21.92-11.11 31-3.56 9.08-10.9 25.5-16.33 36.5-5.42 11-14.2 27.2-19.5 36-5.3 8.8-13.28 21.17-17.73 27.5-4.45 6.33-11.73 16.19-16.18 21.91-4.46 5.73-12.87 15.86-18.69 22.5-5.83 6.65-17.08 18.47-25 26.26-7.93 7.79-18.68 17.84-23.91 22.34-5.23 4.49-14.67 12.2-21 17.13-6.33 4.94-18.48 13.63-27 19.32-8.52 5.69-21.13 13.58-28 17.54-6.88 3.95-20.6 11.16-30.5 16-9.9 4.85-25.42 11.73-34.5 15.29-9.08 3.56-18.86 7.2-21.75 8.09l-5.25 1.62c0 38.5 0.36 47 1 47 0.55 0 8.09-2.42 16.75-5.38 8.66-2.96 21.38-7.63 28.25-10.39 6.87-2.76 18.58-7.83 26-11.26 7.42-3.43 17.77-8.5 23-11.25 5.23-2.76 12.65-6.81 16.5-9.01 3.85-2.2 11.05-6.48 16-9.51 4.95-3.03 13.73-8.67 19.5-12.55 5.77-3.87 16.13-11.29 23-16.49 6.87-5.21 18.13-14.21 25-20.02 6.87-5.8 21.07-19.12 31.54-29.6 10.48-10.47 23.8-24.66 29.61-31.54 5.81-6.88 14.79-18.13 19.96-25 5.16-6.88 13.03-17.9 17.48-24.5 4.46-6.6 11.69-18.08 16.08-25.5 4.39-7.42 10.72-18.67 14.08-25 3.35-6.33 8.77-17.35 12.04-24.5 3.27-7.15 8.44-19.3 11.48-27 3.03-7.7 7.34-19.4 9.55-26 2.22-6.6 5.82-18.3 8-26 2.18-7.7 5.33-20.08 7-27.5 1.67-7.42 4.17-20.25 5.56-28.5 1.38-8.25 3.21-21.08 4.06-28.5 0.86-7.42 2-20.02 2.55-28 0.54-7.98 0.99-23.16 1-33.75 0.01-10.59-0.45-26.11-1.02-34.5-0.57-8.39-1.95-22.67-3.08-31.75-1.13-9.08-3.1-22.35-4.38-29.5-1.28-7.15-3.53-18.4-5.01-25-1.48-6.6-5.12-20.44-8.09-30.75-2.98-10.31-8.38-26.74-12.02-36.5-3.63-9.76-9.52-24.27-13.07-32.25-3.56-7.98-9.87-21.02-14.02-29-4.16-7.98-10.94-20.13-15.08-27-4.14-6.88-10.99-17.68-15.23-24-4.23-6.32-11.73-16.9-16.65-23.5-4.92-6.6-13.63-17.63-19.34-24.5-5.71-6.88-19.86-21.98-31.44-33.56-11.58-11.58-26.46-25.54-33.06-31.03-6.6-5.48-17.4-14.04-24-19.02-6.6-4.97-17.4-12.65-24-17.06-6.6-4.42-17.62-11.4-24.5-15.52-6.87-4.12-18.12-10.46-25-14.08-6.87-3.62-18.35-9.26-25.5-12.53-7.15-3.27-19.3-8.43-27-11.47-7.7-3.03-19.4-7.34-26-9.55-6.6-2.22-18.3-5.82-26-8-7.7-2.18-20.08-5.33-27.5-7-7.42-1.67-20.25-4.17-28.5-5.56-8.25-1.38-21.08-3.21-28.5-4.07-7.42-0.86-20.25-2-28.5-2.54-8.25-0.54-16.91-0.99-19.25-0.99l-4.25-0.02z"/>
		<path id="Path 2" class="s0" d="m732.04 453.47l-0.04 237.53h440c-0.71-6.59-1.19-13.45-1.52-19.5-0.33-6.05-1.46-17.75-2.51-26-1.04-8.25-3.06-21.3-4.47-29-1.41-7.7-4.54-21.65-6.94-31-2.41-9.35-6.26-22.85-8.57-30-2.31-7.15-7.11-20.42-10.68-29.5-3.57-9.08-10.46-24.6-15.31-34.5-4.84-9.9-12.05-23.63-16.01-30.5-3.96-6.88-11.37-18.8-16.47-26.5-5.1-7.7-13.41-19.4-18.46-26-5.05-6.6-13.99-17.62-19.87-24.49-5.88-6.87-16.77-18.57-24.19-26-7.43-7.43-18.9-18.17-25.5-23.87-6.6-5.7-18.08-14.95-25.5-20.55-7.42-5.61-17.77-13.07-23-16.59-5.22-3.52-15.8-10.18-23.5-14.8-7.7-4.62-23-12.82-34-18.23-11-5.4-27.42-12.74-36.5-16.3-9.08-3.57-23.02-8.57-31-11.12-7.97-2.55-22.6-6.65-32.5-9.09-9.9-2.45-25.87-5.76-35.5-7.35-9.62-1.59-19.84-3.18-22.71-3.54l-5.21-0.64z"/>
		<path id="Path 3" class="s1" d="m640.5 169.12c-6.6 0.46-18.08 1.55-25.5 2.43-7.42 0.88-20.02 2.68-28 4.01-7.98 1.34-20.8 3.82-28.5 5.52-7.7 1.71-22.44 5.54-32.75 8.51-10.31 2.98-26.74 8.39-36.5 12.04-9.76 3.64-24.27 9.52-32.25 13.07-7.98 3.55-21.02 9.85-29 14-7.98 4.16-20.13 10.94-27 15.08-6.88 4.14-17.68 10.99-24 15.23-6.32 4.23-16.9 11.74-23.5 16.67-6.6 4.94-17.63 13.64-24.5 19.34-6.88 5.7-21.98 19.84-33.56 31.42-11.58 11.58-25.54 26.46-31.03 33.06-5.48 6.6-14.21 17.62-19.4 24.5-5.19 6.87-14 19.48-19.59 28-5.59 8.52-13.4 21.12-17.36 28-3.96 6.87-10.96 20.15-15.55 29.5-4.59 9.35-10.61 22.4-13.37 29-2.77 6.6-7.31 18.3-10.09 26-2.79 7.7-7.07 20.75-9.51 29-2.44 8.25-5.59 19.61-6.99 25.25-1.4 5.64-2.55 10.7-2.55 11.25 0 0.64 8.33 1 23 1h23c1.63-6.59 3.63-13.9 5.49-20.5 1.86-6.6 5.59-18.3 8.29-26 2.7-7.7 7.32-19.85 10.27-27 2.95-7.15 9.27-20.88 14.06-30.5 4.78-9.63 12.63-24.02 17.44-32 4.81-7.98 11.46-18.55 14.79-23.5 3.34-4.95 10.64-15.07 16.25-22.5 5.6-7.43 14.85-18.89 20.55-25.49 5.7-6.59 16.44-18.07 23.88-25.5 7.43-7.43 19.29-18.46 26.35-24.51 7.06-6.05 17.87-14.82 24.02-19.5 6.15-4.68 16.12-11.86 22.15-15.97 6.03-4.1 17.26-11.22 24.96-15.82 7.7-4.59 21.43-12.07 30.5-16.61 9.07-4.55 22.57-10.85 30-14.01 7.43-3.15 22.05-8.65 32.5-12.2 10.45-3.56 27.77-8.66 38.5-11.35 10.73-2.68 27.83-6.24 38-7.9 10.17-1.65 20.64-3.27 23.25-3.58l4.75-0.56v984c-8.14-0.94-18.38-2.52-28-4.11-9.63-1.59-25.6-4.9-35.5-7.35-9.9-2.44-24.52-6.54-32.5-9.09-7.98-2.55-21.93-7.55-31-11.11-9.07-3.56-25.5-10.9-36.5-16.33-11-5.42-27.2-14.2-36-19.5-8.8-5.3-21.18-13.28-27.5-17.73-6.32-4.45-16.19-11.73-21.91-16.18-5.73-4.46-15.86-12.87-22.5-18.7-6.65-5.84-19.3-17.99-28.1-27-8.81-9.02-20.33-21.57-25.59-27.9-5.26-6.33-13.41-16.67-18.1-23-4.7-6.33-11.92-16.67-16.04-23-4.13-6.33-10.76-17.13-14.73-24-3.97-6.88-11.19-20.6-16.03-30.5-4.85-9.9-11.74-25.42-15.31-34.5-3.57-9.08-8.37-22.35-10.68-29.5-2.31-7.15-6.16-20.65-8.57-30-2.4-9.35-5.53-23.3-6.94-31-1.41-7.7-3.42-20.75-4.46-29-1.04-8.25-2.15-19.39-2.47-24.75l-0.57-9.75h318v-45h-364c0 27.9 0.46 42.86 1.03 51.25 0.57 8.39 1.95 22.67 3.08 31.75 1.13 9.08 3.1 22.35 4.38 29.5 1.28 7.15 3.53 18.4 5.01 25 1.48 6.6 5.12 20.44 8.09 30.75 2.98 10.31 8.38 26.74 12.02 36.5 3.63 9.76 9.52 24.27 13.07 32.25 3.56 7.98 9.87 21.02 14.02 29 4.16 7.98 10.94 20.12 15.08 27 4.14 6.87 11.14 17.9 15.56 24.5 4.42 6.6 12.3 17.62 17.51 24.5 5.21 6.87 12.66 16.32 16.56 20.98 3.9 4.67 12.08 13.89 18.18 20.5 6.1 6.61 16.22 16.94 22.5 22.95 6.28 6.02 16.18 15.02 22.01 20 5.83 4.99 15.28 12.72 21 17.18 5.72 4.45 16.03 12.03 22.9 16.84 6.88 4.8 18.69 12.52 26.25 17.14 7.56 4.63 19.94 11.76 27.5 15.85 7.56 4.09 20.05 10.33 27.75 13.87 7.7 3.54 20.3 8.92 28 11.96 7.7 3.04 19.4 7.34 26 9.55 6.6 2.22 18.3 5.82 26 8 7.7 2.18 20.08 5.33 27.5 7 7.42 1.67 20.25 4.17 28.5 5.56 8.25 1.38 21.08 3.21 28.5 4.06 7.42 0.86 20.02 2 28 2.55 7.98 0.54 16.64 0.99 19.25 1l4.75 0.01v-1080c-11.24 0.22-19.9 0.66-26.5 1.12z"/>
	</g>
</svg>