<svg width="244" height="288" viewBox="0 0 244 288" fill="none" xmlns="http://www.w3.org/2000/svg">
<path d="M0 80C0 84.4183 3.58172 88 8 88H47.6822C50.1197 88 52.408 86.8743 54.0057 85.0336C70.5071 66.0221 94.8496 54 122 54C149.15 54 173.493 66.0221 189.994 85.0336C191.592 86.8743 193.88 88 196.318 88H236C240.418 88 244 84.4183 244 80V8C244 3.58172 240.418 0 236 0H8C3.58173 0 0 3.58172 0 8V80Z" fill="#E86219"/>
<path d="M0 108V180C0 184.418 3.58172 188 8 188H43.4705C36.1655 174.991 32 159.982 32 144C32 128.018 36.1658 113.009 43.4705 100H8C3.58173 100 0 103.582 0 108Z" fill="#E86219"/>
<path d="M244 180V108C244 103.582 240.418 100 236 100H200.53C207.834 113.009 212 128.018 212 144C212 159.982 207.834 174.991 200.53 188H236C240.418 188 244 184.418 244 180Z" fill="#E86219"/>
<path d="M8 288H236C240.418 288 244 284.418 244 280V208C244 203.582 240.418 200 236 200H196.318C193.88 200 191.592 201.126 189.994 202.966C173.493 221.978 149.15 234 122 234C94.8498 234 70.5073 221.978 54.0059 202.966C52.4082 201.126 50.1199 200 47.6825 200H8C3.58173 200 0 203.582 0 208V280C0 284.418 3.58172 288 8 288Z" fill="#E86219"/>
<circle cx="122" cy="144" r="80" fill="#EBB43D"/>
<circle cx="122" cy="144" r="75" fill="#E68816"/>
<circle cx="115.5" cy="137.5" r="68.5" fill="#E2A21C"/>
<path d="M97 153L102.29 163.719L114.119 165.438L105.56 173.781L107.58 185.562L97 180L86.4199 185.562L88.4405 173.781L79.881 165.438L91.7099 163.719L97 153Z" fill="#A9261C"/>
<path d="M148 153L153.29 163.719L165.119 165.438L156.56 173.781L158.58 185.562L148 180L137.42 185.562L139.44 173.781L130.881 165.438L142.71 163.719L148 153Z" fill="#A9261C"/>
<path d="M148 103L153.29 113.719L165.119 115.438L156.56 123.781L158.58 135.562L148 130L137.42 135.562L139.44 123.781L130.881 115.438L142.71 113.719L148 103Z" fill="#A9261C"/>
<path d="M97 103L102.29 113.719L114.119 115.438L105.56 123.781L107.58 135.562L97 130L86.4199 135.562L88.4405 123.781L79.881 115.438L91.7099 113.719L97 103Z" fill="#A9261C"/>
<ellipse cx="83.6006" cy="91.145" rx="22.5" ry="12.5" transform="rotate(-35 83.6006 91.145)" fill="#F3C167"/>
</svg>
